# AST/ASF file generated using VICON BodyLanguage
# -----------------------------------------------
:version 1.10
:name VICON
:units
  mass 1.0
  length 0.45
  angle deg
:documentation
   .ast/.asf automatically generated from VICON data using
   VICON BodyBuilder and BodyLanguage model FoxedUp or BRILLIANT.MOD
:root
   order TX TY TZ RX RY RZ
   axis XYZ
   position 0 0 0  
   orientation 0 0 0 
:bonedata
  begin
     id 1 
     name lhipjoint
     direction 0.624716 -0.669793 0.401383 
     length 2.38238 
     axis 0 0 0  XYZ
  end
  begin
     id 2 
     name lfemur
     direction 0.34202 -0.939693 0  
     length 6.4574  
     axis 0 0 20  XYZ
    dof rx ry rz
    limits (-160.0 20.0)
           (-70.0 70.0)
           (-60.0 70.0)
  end
  begin
     id 3 
     name ltibia
     direction 0.34202 -0.939693 0   
     length 7.68739   
     axis 0 0 20   XYZ
    dof rx
    limits (-10.0 170.0)
  end
  begin
     id 4 
     name lfoot
     direction 0.0681309 -0.187188 0.979959   
     length 2.46615   
     axis -90 7.62852e-016 20   XYZ
    dof rx rz
    limits (-45.0 90.0)
           (-70.0 20.0)
  end
  begin
     id 5 
     name ltoes
     direction 1.53566e-011 -4.21819e-011 1   
     length 1.2376   
     axis -90 7.62852e-016 20   XYZ
    dof rx
    limits (-90.0 20.0)
  end
  begin
     id 6 
     name rhipjoint
     direction -0.644473 -0.655875 0.393043   
     length 2.43293  
     axis 0 0 0  XYZ 
  end
  begin
     id 7 
     name rfemur
     direction -0.34202 -0.939693 0   
     length 6.7025   
     axis 0 0 -20   XYZ
    dof rx ry rz
    limits (-160.0 20.0)
           (-70.0 70.0)
           (-70.0 60.0)
  end
  begin
     id 8 
     name rtibia
     direction -0.34202 -0.939693 0   
     length 7.80547   
     axis 0 0 -20   XYZ
    dof rx
    limits (-10.0 170.0)
 end
 begin
     id 9 
     name rfoot
     direction -0.0756734 -0.207911 0.975216   
     length 2.40315  
     axis -90 -7.62852e-016 -20   XYZ
    dof rx rz
    limits (-45.0 90.0)
           (-20.0 70.0)
  end
  begin
     id 10 
     name rtoes
     direction -1.5353e-011 -4.21879e-011 1   
     length 1.20477   
     axis -90 -7.62852e-016 -20   XYZ
    dof rx
    limits (-90.0 20.0)
  end
  begin
     id 11 
     name lowerback
     direction 0.0160353 0.987463 -0.157037   
     length 2.18572   
     axis 0 0 0   XYZ
    dof rx ry rz
    limits (-20.0 45.0)
           (-30.0 30.0)
           (-30.0 30.0)
  end
  begin
     id 12 
     name upperback
     direction -0.00499661 0.999756 0.0215076   
     length 2.18016   
     axis 0 0 0   XYZ
    dof rx ry rz
    limits (-20.0 45.0)
           (-30.0 30.0)
           (-30.0 30.0)
  end
  begin
     id 13 
     name thorax
     direction -0.00921346 0.995333 0.0960619   
     length 2.24923   
     axis 0 0 0   XYZ
    dof rx ry rz
    limits (-20.0 45.0)
           (-30.0 30.0)
           (-30.0 30.0)
  end
  begin
     id 14 
     name lowerneck
     direction 0.0274184 0.991181 0.12965   
     length 1.70911   
     axis 0 0 0   XYZ
    dof rx ry rz
    limits (-20.0 45.0)
           (-30.0 30.0)
           (-30.0 30.0)
  end
  begin
     id 15 
     name upperneck
     direction 0.0015627 0.999959 -0.00893559   
     length 1.69312   
     axis 0 0 0   XYZ
    dof rx ry rz
    limits (-20.0 45.0)
           (-30.0 30.0)
           (-30.0 30.0)
  end
  begin
     id 16
     name head
     direction -0.00230242 0.999856 -0.0168327  
     length 1.80241  
     axis 0 0 0   XYZ
    dof rx ry rz
    limits (-20.0 45.0)
           (-30.0 30.0)
           (-30.0 30.0)
  end
  begin
     id 17 
     name lclavicle
     direction 0.955523 0.290741 -0.0494489  
     length 3.84275  
     axis 0 0 0   XYZ
    dof ry rz
    limits (-20.0 10.0)
           (0.0 20.0)
  end
  begin
     id 18 
     name lhumerus
     direction 1 -4.48967e-011 -3.18382e-028   
     length 5.17714   
     axis 180 -30 -90   XYZ
    dof rx ry rz
    limits (-60.0 90.0)
           (-90.0 90.0)
           (-90.0 90.0)
  end
  begin
     id 19
     name lradius
     direction 1 -4.48968e-011 -2.22911e-027   
     length 3.43679   
     axis 180 -30 -90   XYZ
    dof rx
    limits (-10.0 170.0)
  end
  begin
     id 20
     name lwrist
     direction 1 -4.48951e-011 -6.32245e-027   
     length 1.7184   
     axis 3.57107e-015 90 90   XYZ
    dof ry
    limits (-180.0 0.0)
 end
  begin
     id 21 
     name lhand
     direction 1 -4.48924e-011 -1.26431e-026   
     length 0.573117   
     axis 8.06912e-015 90 90   XYZ
    dof rx rz
    limits (-90.0 90.0)
           (-45.0 45.0)
  end
  begin
     id 22 
     name lfingers
     direction 1 -4.49001e-011 -2.52965e-026   
     length 0.462062   
     axis 1.61381e-014 90 90   XYZ
    dof rx
    limits (0.0 90.0)
  end
  begin
     id 23
     name lthumb
     direction 0.707107 -6.35008e-011 0.707107   
     length 0.663431   
     axis -90 45 -1.62303e-014   XYZ
    dof rx rz
    limits (-45.0 45.0)
           (-45.0 45.0)
  end
  begin
     id 24 
     name rclavicle
     direction -0.963917 0.256881 -0.0698287   
     length 3.73057  
     axis 0 0 0   XYZ 
    dof ry rz
    limits (-10.0 20.0)
           (-20.0 0.0)
  end
  begin
     id 25 
     name rhumerus
     direction -1 -4.48962e-011 -2.73982e-027  
     length 5.23908   
     axis 180 30 90   XYZ
    dof rx ry rz
    limits (-90.0 60.0)
           (-90.0 90.0)
           (-90.0 90.0)
  end
  begin
     id 26 
     name rradius
     direction -1 -4.48968e-011 -4.33218e-027   
     length 3.46485   
     axis 180 30 90   XYZ
    dof rx
    limits (-10.0 170.0)
  end
  begin
     id 27 
     name rwrist
     direction -1 -4.48989e-011 -6.32372e-027   
     length 1.73243   
     axis 3.57107e-015 -90 -90   XYZ
    dof ry
    limits (-180.0 0.0)
  end
  begin
     id 28
     name rhand
     direction -1 -4.48948e-011 -1.26448e-026   
     length 0.608752   
     axis 8.06912e-015 -90 -90   XYZ
    dof rx rz
    limits (-90.0 90.0)
           (-45.0 45.0)
  end
  begin
     id 29
     name rfingers
     direction -1 -4.48962e-011 -2.52913e-026   
     length 0.490792   
     axis 1.61381e-014 -90 -90   XYZ
    dof rx
    limits (0.0 90.0)
  end
  begin
     id 30
     name rthumb
     direction -0.707107 -6.34878e-011 0.707107   
     length 0.704682   
     axis -90 -45 1.62303e-014   XYZ
    dof rx rz
    limits (-45.0 45.0)
           (-45.0 45.0)
  end
:hierarchy
  begin
    root lhipjoint rhipjoint lowerback
    lhipjoint lfemur
    lfemur ltibia
    ltibia lfoot
    lfoot ltoes
    rhipjoint rfemur
    rfemur rtibia
    rtibia rfoot
    rfoot rtoes
    lowerback upperback
    upperback thorax
    thorax lowerneck lclavicle rclavicle
    lowerneck upperneck
    upperneck head
    lclavicle lhumerus
    lhumerus lradius
    lradius lwrist
    lwrist lhand lthumb
    lhand lfingers
    rclavicle rhumerus
    rhumerus rradius
    rradius rwrist
    rwrist rhand rthumb
    rhand rfingers
  end

#!OML:ASF G:\JayActor3\Patient Classification 1\Patient 1\Session 6\male.ASF
:FULLY-SPECIFIED
:DEGREES
1
root 49.9666 15.8876 16.7355 172.783 -40.5317 -174.267
lowerback 4.30443 -1.24758 3.0809
upperback 3.96449 -1.77964 1.53643
thorax 1.62535 -0.920477 -0.0991259
lowerneck -9.00099 0.217155 1.97968
upperneck 10.4246 -0.00202124 -0.337945
head 4.60062 0.0309499 -0.428744
rclavicle 7.45443e-015 -1.04362e-015
rhumerus -42.4285 8.97178 -90.2704
rradius 129.946
rwrist 13.181
rhand 24.4577 -18.8718
rfingers 7.12502
rthumb 48.6628 -40.7693
lclavicle 7.45443e-015 -1.04362e-015
lhumerus -44.6477 -8.34308 92.3652
lradius 134.429
lwrist 2.15954
lhand 9.01458 41.764
lfingers 7.12502
lthumb 34.1911 68.5052
rfemur -9.21259 -1.58843 26.7036
rtibia 36.2647
rfoot -26.6272 -13.36
rtoes 8.94043
lfemur -4.5106 10.0105 -14.6683
ltibia 29.6826
lfoot -22.4604 7.56948
ltoes 5.28255
2
root 49.9704 15.8883 16.7383 172.821 -40.5438 -174.313
lowerback 4.32622 -1.24712 3.02841
upperback 3.99057 -1.78151 1.52581
thorax 1.64111 -0.922654 -0.0805138
lowerneck -9.13323 0.25018 1.87989
upperneck 10.52 0.0374392 -0.211891
head 4.65253 0.0544421 -0.371131
rclavicle 2.15557e-014 -1.29707e-014
rhumerus -42.4088 9.01258 -90.2723
rradius 129.969
rwrist 13.1581
rhand 24.4621 -18.9666
rfingers 7.12502
rthumb 48.6668 -40.8622
lclavicle 2.15557e-014 -1.29707e-014
lhumerus -44.6141 -8.22386 92.2812
lradius 134.621
lwrist 2.86595
lhand 9.45707 42.0785
lfingers 7.12502
lthumb 34.6112 68.7245
rfemur -9.24756 -1.58125 26.6755
rtibia 36.2747
rfoot -26.6339 -13.3965
rtoes 9.00251
lfemur -4.52726 9.99283 -14.7131
ltibia 29.6557
lfoot -22.4085 7.59156
ltoes 5.40654
3
root 49.9735 15.8892 16.7408 172.858 -40.5276 -174.368
lowerback 4.31961 -1.23962 2.9684
upperback 4.03764 -1.77754 1.52623
thorax 1.69514 -0.922232 -0.0476149
lowerneck -9.11893 0.257096 1.78931
upperneck 10.4343 0.0553476 -0.156077
head 4.62385 0.0633945 -0.337829
rclavicle 6.57946e-014 -2.43511e-015
rhumerus -42.3311 9.0441 -90.2627
rradius 129.976
rwrist 13.1339
rhand 24.5507 -18.9864
rfingers 7.12502
rthumb 48.7483 -40.8424
lclavicle 6.57946e-014 -2.43511e-015
lhumerus -44.4712 -8.21674 92.3008
lradius 134.603
lwrist 2.88659
lhand 9.33492 42.2544
lfingers 7.12502
lthumb 34.4953 68.9269
rfemur -9.27757 -1.563 26.6365
rtibia 36.2952
rfoot -26.6232 -13.4176
rtoes 8.86749
lfemur -4.52379 10.0047 -14.7552
ltibia 29.6263
lfoot -22.3799 7.57918
ltoes 5.45379
4
root 49.9763 15.8899 16.7432 172.902 -40.509 -174.406
lowerback 4.33218 -1.21413 2.9698
upperback 4.05483 -1.74307 1.48497
thorax 1.70529 -0.904147 -0.0916908
lowerneck -9.15107 0.236533 1.88135
upperneck 10.4607 0.0248602 -0.246784
head 4.63706 0.0466355 -0.382842
rclavicle 5.10178e-014 -4.34841e-015
rhumerus -42.3338 9.00944 -90.3046
rradius 129.994
rwrist 13.1649
rhand 24.4956 -18.9689
rfingers 7.12502
rthumb 48.6976 -40.8495
lclavicle 5.10178e-014 -4.34841e-015
lhumerus -44.3967 -8.23304 92.2215
lradius 134.606
lwrist 3.05161
lhand 9.45766 42.0792
lfingers 7.12502
lthumb 34.6118 68.7251
rfemur -9.32414 -1.55817 26.6086
rtibia 36.3127
rfoot -26.6052 -13.3888
rtoes 8.93354
lfemur -4.54432 10.0111 -14.7913
ltibia 29.5987
lfoot -22.3493 7.61548
ltoes 5.44235
5
root 49.9796 15.8908 16.7458 172.951 -40.4972 -174.451
lowerback 4.33333 -1.20051 2.93773
upperback 4.08118 -1.72731 1.4663
thorax 1.73245 -0.896684 -0.0937691
lowerneck -9.18079 0.232338 1.88949
upperneck 10.4585 0.0214171 -0.274607
head 4.64131 0.0438034 -0.39296
rclavicle -1.61381e-014 3.24889e-015
rhumerus -42.3091 9.02061 -90.3218
rradius 130.009
rwrist 13.1729
rhand 24.4697 -18.9765
rfingers 7.12502
rthumb 48.6739 -40.8686
lclavicle -1.61381e-014 3.24889e-015
lhumerus -44.3438 -8.29159 92.2585
lradius 134.579
lwrist 2.78461
lhand 9.23948 41.8933
lfingers 7.12502
lthumb 34.4047 68.5864
rfemur -9.37549 -1.55344 26.5771
rtibia 36.3346
rfoot -26.5895 -13.3907
rtoes 8.91372
lfemur -4.56484 10.0179 -14.8313
ltibia 29.5682
lfoot -22.2969 7.6231
ltoes 5.34894
6
root 49.9829 15.8919 16.7482 173.005 -40.4863 -174.495
lowerback 4.32957 -1.18591 2.90819
upperback 4.10485 -1.71001 1.44609
thorax 1.7595 -0.888284 -0.0989703
lowerneck -9.1933 0.221267 1.91169
upperneck 10.4434 0.00935594 -0.32016
head 4.63856 0.0361603 -0.411395
rclavicle -3.39937e-014 1.01256e-015
rhumerus -42.2902 9.03079 -90.3432
rradius 130.023
rwrist 13.1836
rhand 24.4216 -18.9772
rfingers 7.12502
rthumb 48.6296 -40.8908
lclavicle -3.39937e-014 1.01256e-015
lhumerus -44.3059 -8.38808 92.3274
lradius 134.518
lwrist 2.3089
lhand 8.89316 41.6182
lfingers 7.12502
lthumb 34.0758 68.3851
rfemur -9.43159 -1.55076 26.5458
rtibia 36.3545
rfoot -26.5702 -13.3928
rtoes 8.89175
lfemur -4.593 10.0268 -14.8715
ltibia 29.5406
lfoot -22.233 7.62303
ltoes 5.15449
7
root 49.9862 15.893 16.7506 173.064 -40.4791 -174.538
lowerback 4.31944 -1.17281 2.87896
upperback 4.12435 -1.69449 1.42602
thorax 1.78574 -0.880662 -0.104237
lowerneck -9.19332 0.207758 1.93882
upperneck 10.4247 -0.00579877 -0.371741
head 4.63263 0.0267603 -0.432695
rclavicle 3.29587e-015 2.10603e-014
rhumerus -42.2783 9.0448 -90.3685
rradius 130.034
rwrist 13.1943
rhand 24.351 -18.9784
rfingers 7.12502
rthumb 48.5647 -40.9234
lclavicle 3.29587e-015 2.10603e-014
lhumerus -44.2799 -8.48575 92.3995
lradius 134.453
lwrist 1.81669
lhand 8.54533 41.3402
lfingers 7.12502
lthumb 33.7454 68.1802
rfemur -9.49492 -1.55026 26.5159
rtibia 36.3752
rfoot -26.551 -13.3979
rtoes 8.87436
lfemur -4.62785 10.0334 -14.9116
ltibia 29.511
lfoot -22.1562 7.61833
ltoes 4.88858
8
root 49.9898 15.8942 16.7529 173.127 -40.479 -174.58
lowerback 4.30524 -1.16228 2.84403
upperback 4.14132 -1.68248 1.40873
thorax 1.81177 -0.874932 -0.103423
lowerneck -9.18734 0.196463 1.95667
upperneck 10.4033 -0.018318 -0.409046
head 4.62486 0.0191289 -0.447895
rclavicle -9.17119e-014 -2.18042e-015
rhumerus -42.2664 9.06285 -90.395
rradius 130.041
rwrist 13.2016
rhand 24.2706 -18.9834
rfingers 7.12502
rthumb 48.4906 -40.9641
lclavicle -9.17119e-014 -2.18042e-015
lhumerus -44.2517 -8.57088 92.4636
lradius 134.389
lwrist 1.39395
lhand 8.24109 41.1174
lfingers 7.12502
lthumb 33.4562 68.0202
rfemur -9.56157 -1.54915 26.4875
rtibia 36.3958
rfoot -26.5381 -13.4046
rtoes 8.86406
lfemur -4.66834 10.0433 -14.9501
ltibia 29.4814
lfoot -22.071 7.60252
ltoes 4.59101
9
root 49.9935 15.8954 16.755 173.186 -40.4875 -174.621
lowerback 4.29192 -1.15243 2.80919
upperback 4.15617 -1.67109 1.3906
thorax 1.83507 -0.869485 -0.103432
lowerneck -9.16588 0.181927 1.97301
upperneck 10.3795 -0.0356823 -0.439484
head 4.61369 0.00938927 -0.461042
rclavicle 3.10298e-014 7.17488e-015
rhumerus -42.257 9.0734 -90.4241
rradius 130.043
rwrist 13.2037
rhand 24.1836 -18.9908
rfingers 7.12502
rthumb 48.4106 -41.0098
lclavicle 3.10298e-014 7.17488e-015
lhumerus -44.2145 -8.63307 92.4946
lradius 134.338
lwrist 1.15805
lhand 8.07134 40.969
lfingers 7.12502
lthumb 33.2949 67.9065
rfemur -9.62462 -1.54854 26.4608
rtibia 36.4154
rfoot -26.5331 -13.4107
rtoes 8.87656
lfemur -4.70853 10.0578 -14.9851
ltibia 29.4521
lfoot -21.9859 7.58017
ltoes 4.31364
10
root 49.9972 15.8965 16.7569 173.241 -40.4986 -174.661
lowerback 4.28034 -1.14431 2.77158
upperback 4.17181 -1.66211 1.37289
thorax 1.85823 -0.865358 -0.101366
lowerneck -9.15114 0.172107 1.98876
upperneck 10.3669 -0.0478107 -0.463058
head 4.6072 0.00260027 -0.471649
rclavicle 4.93172e-014 -3.70236e-015
rhumerus -42.2423 9.08606 -90.4556
rradius 130.036
rwrist 13.1951
rhand 24.0966 -18.9997
rfingers 7.12502
rthumb 48.3305 -41.0568
lclavicle 4.93172e-014 -3.70236e-015
lhumerus -44.1559 -8.65371 92.4792
lradius 134.307
lwrist 1.18424
lhand 8.05967 40.9166
lfingers 7.12502
lthumb 33.2838 67.8565
rfemur -9.68202 -1.5475 26.4346
rtibia 36.4342
rfoot -26.531 -13.4181
rtoes 8.88296
lfemur -4.74374 10.0706 -15.0188
ltibia 29.4223
lfoot -21.9119 7.56259
ltoes 4.11265
11
root 50.001 15.8976 16.7587 173.29 -40.5144 -174.701
lowerback 4.27344 -1.13669 2.73571
upperback 4.18726 -1.65352 1.35358
thorax 1.87849 -0.861411 -0.101774
lowerneck -9.1427 0.168943 1.99333
upperneck 10.3687 -0.0526375 -0.463596
head 4.60627 0.000319557 -0.472882
rclavicle 3.28647e-014 6.79595e-015
rhumerus -42.2242 9.09206 -90.4885
rradius 130.023
rwrist 13.1787
rhand 24.0178 -19.0116
rfingers 7.12502
rthumb 48.2579 -41.1033
lclavicle 3.28647e-014 6.79595e-015
lhumerus -44.0986 -8.68346 92.4595
lradius 134.27
lwrist 1.22767
lhand 8.04681 40.8642
lfingers 7.12502
lthumb 33.2715 67.8067
rfemur -9.73255 -1.5444 26.4086
rtibia 36.4521
rfoot -26.5375 -13.4216
rtoes 8.9114
lfemur -4.7741 10.0832 -15.0508
ltibia 29.3922
lfoot -21.8467 7.54653
ltoes 3.98643
12
root 50.0046 15.8987 16.7603 173.333 -40.5297 -174.741
lowerback 4.27188 -1.12943 2.70109
upperback 4.20342 -1.64527 1.33342
thorax 1.89645 -0.857671 -0.103633
lowerneck -9.14019 0.167142 2.0001
upperneck 10.3845 -0.0560787 -0.466417
head 4.61068 -0.00136156 -0.47512
rclavicle -4.87053e-014 -7.52897e-015
rhumerus -42.204 9.09948 -90.5208
rradius 130.005
rwrist 13.1468
rhand 23.9431 -19.0252
rfingers 7.12502
rthumb 48.1891 -41.1493
lclavicle -4.87053e-014 -7.52897e-015
lhumerus -44.0442 -8.71782 92.4359
lradius 134.23
lwrist 1.28481
lhand 8.0536 40.8129
lfingers 7.12502
lthumb 33.278 67.7541
rfemur -9.77467 -1.53999 26.3822
rtibia 36.4694
rfoot -26.5461 -13.4242
rtoes 8.93538
lfemur -4.79618 10.0907 -15.0827
ltibia 29.3614
lfoot -21.7959 7.54164
ltoes 3.94399
13
root 50.0082 15.8998 16.7618 173.377 -40.5443 -174.78
lowerback 4.26937 -1.12255 2.66751
upperback 4.21849 -1.63745 1.31351
thorax 1.91378 -0.854121 -0.10579
lowerneck -9.14467 0.167016 2.00755
upperneck 10.4131 -0.0575104 -0.471218
head 4.62021 -0.0021642 -0.477981
rclavicle 3.90643e-014 -1.89839e-014
rhumerus -42.181 9.10944 -90.5502
rradius 129.984
rwrist 13.103
rhand 23.885 -19.0419
rfingers 7.12502
rthumb 48.1356 -41.1912
lclavicle 3.90643e-014 -1.89839e-014
lhumerus -43.9929 -8.75793 92.4116
lradius 134.188
lwrist 1.34607
lhand 8.05007 40.7691
lfingers 7.12502
lthumb 33.2746 67.711
rfemur -9.81686 -1.53488 26.3561
rtibia 36.4861
rfoot -26.556 -13.427
rtoes 8.96374
lfemur -4.81754 10.0946 -15.1153
ltibia 29.33
lfoot -21.7486 7.54048
ltoes 3.91065
